<svg xmlns="http://www.w3.org/2000/svg" viewBox="-20 -20 240 240">
    <g fill="currentColor" fill-rule="evenodd">
        <path d="M51.873 130.588c-1.39 1.962-1.2 3.153-4.296 5.605s-4.802 1.751-8.087 4.204-2.527 3.223-5.054 5.605-2.338 1.47-5.055 3.923c-2.716 2.452-3.348 2.592-5.812 5.885s-3.727 5.465-4.043 7.287c-.316 1.821 2.021-1.051 2.78 0s-.885 3.433.252 4.204 2.78-1.682 4.296-1.121.822 2.942 1.77 3.363c.947.42.694-2.172 2.021-1.682s1.769 3.083 3.285 3.643 1.2-1.19 2.78-1.401c1.58-.21 2.843-1.261 3.538.56.695 1.822-2.527 5.676-.758 6.726 1.769 1.051 4.486-1.821 7.834-2.522s1.895 3.013 5.56-.28 5.433-8.407 9.097-12.891c3.665-4.484 2.464-2.873 5.56-5.045s3.601-2.312 6.823-3.643 6.76.35 6.065-1.682-5.37-3.923-8.845-6.445c-3.474-2.523-3.411-.28-5.054-3.644s-1.643-5.394-1.516-9.808c.126-4.414.821-4.484 2.021-7.847s.759-2.382 2.78-5.605 2.97-4.274 5.307-7.287 2.464-1.961 4.044-4.764 2.4-5.325 2.274-6.446-1.264 0-2.78 1.962-1.58 3.363-3.285 5.885c-1.706 2.523-1.832 2.312-3.538 4.204s-1.01 1.752-3.285 3.363-2.78.7-5.813 3.083-3.917 3.853-6.317 6.445-2.148 2.383-3.286 3.924.127.28-1.263 2.242M111.97 147.154c2.814 3.842 11.929 10.785 14.953 14.812s-1.638.787-2.856 1.296c-1.218.51-.672 1.065-2.016.74-1.344-.323-1.932-1.573-3.36-2.036s-1.176-.694-2.352.185c-1.177.88-2.185 2.5-2.353 3.333s.882.37 1.68 0c.799-.37.337-1.157 1.513-1.481s2.31-.417 3.192.185-.756 1.666.336 2.222c1.092.555 1.932.416 4.032 0 2.1-.417 2.772-1.204 4.368-1.667 1.596-.462 1.008-1.666 2.016-.185 1.008 1.482 1.722 3.472 2.016 6.11s-1.134 2.87-.84 4.444 1.26.74 2.016 1.851.294 2.268 1.008 2.592 1.596-.092 1.848-1.296-.294-1.759-.84-3.518-1.722-2.962-1.344-3.517c.378-.556 1.848.37 2.856 1.296 1.008.925.42 1.064 1.176 2.407s1.05 2.407 1.848 2.962 1.722.88 1.344-.74-1.47-3.611-2.856-5.74-1.428-1.157-2.688-2.777-1.05-1.898-2.352-3.703c-1.302-1.806-1.386-2.037-2.856-3.518s.924 1.296-3.024-2.407-8.652-9.443-12.768-12.405-6.51-3.286-3.697.555"/>
        <path d="M163.639 38.324c-1.547-.921-2.454-1.44-4.268-2.765-1.814-1.324-1.494-1.324-2.988-2.534s-1.28-1.383-2.987-2.304c-1.707-.922-2.134-.634-3.841-1.383s-1.067-.979-2.988-1.613c-1.92-.633-2.56-.748-4.695-.921-2.134-.173-2.134.173-3.84.23-1.708.058-.748-.345-2.988 0-2.241.346-3.628.691-5.975 1.383-2.348.69-1.601.403-3.415 1.382-1.814.98-2.027 1.152-3.841 2.535-1.814 1.382-1.92 1.67-3.414 2.995s-.96.922-2.561 2.304c-1.6 1.383-2.187 1.498-3.841 3.226s-1.707 2.074-2.774 3.686-.32 1.325-1.494 2.765-1.547 1.325-3.201 2.996c-1.654 1.67-1.227 1.728-3.415 3.686-2.187 1.959-2.774 1.843-5.334 4.148-2.561 2.304-2.348 2.592-4.909 5.069s-2.667 2.361-5.335 4.838c-2.667 2.477-3.04 2.823-5.334 5.07-2.294 2.246-1.761 1.497-3.842 3.916-2.08 2.42-2.347 3.11-4.481 5.76s-2.347 2.65-4.055 4.84c-1.707 2.188-1.173 1.785-2.774 3.916s-1.76 2.016-3.627 4.608c-1.868 2.592-2.188 3.053-3.842 5.76-1.653 2.708-1.387 2.42-2.774 5.07s-1.387 2.534-2.774 5.53c-1.387 2.995-1.76 3.629-2.774 6.451-1.014 2.823-.587 2.304-1.28 4.839-.694 2.534-1.12 3.225-1.494 5.3-.374 2.073-.107 1.612 0 2.994.106 1.383-.8 2.708.427 2.535s2.08-1.325 4.48-3.226c2.402-1.9 2.562-2.016 5.122-4.378s2.348-2.88 5.122-5.069 3.521-1.67 5.975-3.686 2.187-2.074 3.841-4.378 1.547-3.11 2.774-4.839c1.227-1.728.747.519 2.134-2.073s2.188-5.127 3.415-8.295 2.187-6.336 1.494-4.378c-.694 1.959-2.615 7.892-4.268 12.212-1.654 4.32-1.067 2.995-2.348 5.069s-1.28 1.325-2.774 3.226c-1.494 1.9-1.654 2.189-3.2 4.377-1.548 2.19-1.761 1.613-2.988 4.378s-1.28 3.341-1.921 6.682c-.64 3.341-.694 3.975-.64 6.682s.053 2.765.853 4.147.694.576 2.348 1.383c1.654.806 2.24.576 4.268 1.843s1.974 1.67 3.84 3.226c1.868 1.555 1.548 2.304 3.629 2.995s3.094-.115 4.694-.23.534-.23 1.707-.23 1.601.69 2.988.23 1.014-2.131 2.56-2.074c1.548.058 1.281 1.843 3.629 2.304s3.52-.288 5.761-.46 1.44-.404 3.201-.23c1.76.172 1.974.748 3.841.92 1.868.174 1.548.289 3.628-.23 2.08-.518 2.294-.576 4.695-1.843 2.4-1.267 1.867-1.21 4.908-3.226 3.04-2.016 4.481-2.304 7.256-4.838 2.774-2.535 1.867-2.996 3.84-5.3 1.975-2.304 2.188-1.67 4.055-3.917s1.814-2.765 3.415-5.069 1.387-1.9 2.987-4.147 1.867-2.247 3.415-4.839c1.547-2.592 1.44-2.592 2.774-5.53 1.333-2.937 1.28-2.765 2.56-6.22 1.28-3.457 1.814-4.667 2.561-7.604s0-1.383.427-4.148.907-3.053 1.28-6.912c.374-3.86.16-4.723.214-8.525s.053-4.032 0-6.682-.053-2.074-.214-3.917c-.16-1.843-.64-1.383-.426-3.456.213-2.074.533-2.592 1.28-4.839.747-2.246.694-2.189 1.707-4.147s1.12-1.844 2.348-3.687 1.227-2.304 2.56-3.686c1.334-1.383.96-1.153 2.774-1.844s2.028-.345 4.482-.921 3.574-.634 5.335-1.383c1.76-.749 1.173-.749 1.707-1.613.533-.864 1.067-1.152.427-1.843s-1.12-.691-2.988-.922c-1.867-.23-2.507.058-4.481 0-1.974-.057-2.08.058-3.415-.23-1.333-.288-.373 0-1.92-.922"/>
    </g>
</svg>
